<svg xmlns="http://www.w3.org/2000/svg" width="298" height="160" viewBox="0 0 298 160">
  <defs>
    <style>
      .cls-1 {
        fill-rule: evenodd;
      }
    </style>
  </defs>
  <path id="COMiKEY_copy_2" data-name="COMiKEY copy 2" class="cls-1" d="M296.6,28.9L271.8,67.1l-4.7,32.8a5.392,5.392,0,0,1-1,3.05q-0.7.649-3.5,0.65-7.1,0-7.1-3.3V99.8l4.6-32.7L243.6,28.8a3.452,3.452,0,0,1-.2-1.1q0-2.5,6.75-2.5t7.75,3.7l10.4,23.9,15.3-24.2a5.533,5.533,0,0,1,2.5-2.7,11.127,11.127,0,0,1,4.5-.7q6.5,0,6.5,2.3A2.762,2.762,0,0,1,296.6,28.9Zm-50.36,29.3q0.2,0.4,1.164,3.05a14.006,14.006,0,0,1,.982,4.5Q248.4,67.6,245.9,67.6H224.3l-0.9,10.3h25.1a4.55,4.55,0,0,1,3.1.95,3.052,3.052,0,0,1,.6,2.55q-0.7,4.9-1.85,6.75A4.175,4.175,0,0,1,246.5,90H209.3l-1.4-1.6,8.3-58.6H232.69q4.026,0.2,5.588,2.7a19.2,19.2,0,0,1,1.612,3.7q2,5.6-1.7,5.6H227.4L226,55.5h15.3Q244.9,55.5,246.237,58.2ZM192.1,63.3l7.5,21.6q0.8,2.3.15,3t-4.2.7a35.059,35.059,0,0,1-7.45-.85q-3.9-.851-4.6-2.85l-6.3-18.5,0.4-3L197,31.8q2-3.6,8.55-3.6t6.55,2.2a2.761,2.761,0,0,1-.5,1.4ZM171.927,23.01q-9.907,0-9.908-8.94a23.741,23.741,0,0,1,.157-2.554q1.571-11.5,12.9-11.5,9.907,0,9.908,8.941a24.233,24.233,0,0,1-.157,2.555Q183.248,23.01,171.927,23.01ZM150.1,85.2a8.168,8.168,0,0,1-1.05,3.65q-0.651.75-3.25,0.75t-4.15-.1a15.849,15.849,0,0,1-3.05-.5q-2.9-.6-2.7-3.1l3.4-28.4-8.2,12.1H121l-4.4-11.9-6.3,45.1a5.988,5.988,0,0,1-1.1,3.15q-0.7.649-3.5,0.65-10,0-9.5-3.7l10-70.9q0.5-3.8,7.4-3.8t7.8,3.7l6.5,25.8,14.2-25.9a6.572,6.572,0,0,1,2.35-2.9,9.023,9.023,0,0,1,4.15-.7q7.2,0,6.8,3.9l-2.6,29.8Zm-63,1q-6.8,8.4-21.7,8.4T46,86.2q-2.6-5-2.6-13.15c0-5.433-.567-3.15.3-9.15,1.466-10.666,2.416-14.816,4.85-20.45s5.633-9.583,9.6-11.85,8.966-3.4,15-3.4S83.7,28.784,86.7,29.95a14.181,14.181,0,0,1,7.15,6.2q2.649,4.451,2.65,12c0,5.034.5,3.617-.5,11.75C93.936,74.5,91.635,80.6,87.1,86.2ZM58.6,74.95q0,5.152.65,6.8A2.352,2.352,0,0,0,61.6,83.4q4.1,0,6.35-.15a11.518,11.518,0,0,0,4.5-1.3A8.828,8.828,0,0,0,75.7,79.4a18.813,18.813,0,0,0,2.1-5l-18-11.7C58.336,72.767,58.6,71.517,58.6,74.95Zm15.47-35.93q-11.323,0-12.9,11.5a23.591,23.591,0,0,0-.157,2.554q0,8.943,9.908,8.941,11.323,0,12.9-11.5a24.182,24.182,0,0,0,.157-2.554Q83.98,39.021,74.072,39.02ZM46.754,34.95a2.59,2.59,0,0,1-1.9,1.15A7.852,7.852,0,0,1,43.4,36a64.477,64.477,0,0,0-12.75-1.5q-5.451,0-7.95,6T18.3,60.15q-1.9,13.65-1.9,18.8t1.6,7.2q1.6,2.051,5.75,2.05t14.45-1a2.484,2.484,0,0,1,2.2.65,2.914,2.914,0,0,1,.4,2.25A31.608,31.608,0,0,1,39.3,97a3.81,3.81,0,0,1-3.1,2.3,105.775,105.775,0,0,1-13.4,1.3q-14.9,0-19.3-8.4Q0.9,87.3.9,79.15A122.128,122.128,0,0,1,2.2,61.9q2.2-16,5.85-24.45T17.6,25.6q5.9-3.4,16.75-3.4T49.8,25.6a1.9,1.9,0,0,1,.7,1.5,12.16,12.16,0,0,1-1.4,3.8A21.732,21.732,0,0,1,46.754,34.95Zm78.213,75.8a19.506,19.506,0,0,1,4.65-7.9,15.447,15.447,0,0,1,6.9-4,43.74,43.74,0,0,1,10.85-1.05,20.284,20.284,0,0,1,8.665,1.744L165.3,31.9a3.876,3.876,0,0,1,1.5-2.95,8.452,8.452,0,0,1,4.2-.75q7.2,0,6.8,3.8l-2.7,29.8L170.09,99.169a49.648,49.648,0,0,1,8.493-.769q12.1,0,15.7,5.8a17.212,17.212,0,0,1,2.3,9.4,94.625,94.625,0,0,1-.95,12.75,66.538,66.538,0,0,1-2.6,11.9,19.506,19.506,0,0,1-4.65,7.9,15.447,15.447,0,0,1-6.9,4,43.74,43.74,0,0,1-10.85,1.05,21.3,21.3,0,0,1-7.357-1.2l-0.777,5.8a6.006,6.006,0,0,1-1.1,3.15q-0.7.65-3.25,0.65a39.692,39.692,0,0,1-4.65-.25,10.3,10.3,0,0,1-3.75-1.15q-1.65-.9-1.45-2.2l0.876-6.4a50.22,50.22,0,0,1-9.758,1q-12.1,0-15.7-5.8a17.212,17.212,0,0,1-2.3-9.4,94.625,94.625,0,0,1,.95-12.75A66.538,66.538,0,0,1,124.967,110.75Zm41.716,29.05a15.266,15.266,0,0,0,6.8,1.3q4.2,0,5.8-3.4t2.65-11.1a93.755,93.755,0,0,0,1.05-10.75,21.812,21.812,0,0,0-.3-4.35q-1-3.3-5.1-3.3a50.575,50.575,0,0,0-8.786.615l-4.044,30.166Zm-31.366-2.3q1,3.3,5.1,3.3a48.356,48.356,0,0,0,9.3-.7l0.782-.16,4.024-29.38-3.206-1.36a15.266,15.266,0,0,0-6.8-1.3q-4.2,0-5.8,3.4t-2.65,11.1a93.755,93.755,0,0,0-1.05,10.75A21.812,21.812,0,0,0,135.317,137.5Z"/>
</svg>
