<svg height="511pt" viewBox="1 -38 511.99999 511" width="511pt" xmlns="http://www.w3.org/2000/svg"><path d="m24.554688 77.476562 89.914062 59.9375-16.621094 24.9375-89.914062-59.9375zm0 0"/><path d="m121.136719 44.984375h29.96875v59.9375h-29.96875zm0 0"/><path d="m31.230469 194.832031h59.9375v29.96875h-59.9375zm0 0"/><path d="m397.554688 137.414062 89.914062-59.9375 16.625 24.9375-89.914062 59.9375zm0 0"/><path d="m360.894531 44.984375h29.96875v59.9375h-29.96875zm0 0"/><path d="m420.832031 194.832031h59.941407v29.96875h-59.941407zm0 0"/><path d="m0 434.585938h512l-256-434.085938zm327.585938-253.703126c-21.304688-9.3125-45.648438-16.023437-71.585938-16.023437-23.613281 0-47.605469 5.46875-71.746094 16.296875l71.746094-121.660156zm-174.992188 53.957032c15.496094-11.589844 30.855469-20.683594 46-27.253906-1.640625 5.453124-2.53125 11.230468-2.53125 17.210937 0 33.050781 26.886719 59.941406 59.9375 59.941406s59.941406-26.890625 59.941406-59.941406c0-6.0625-.914062-11.914063-2.597656-17.4375 17.5 7.390625 32.917969 16.988281 45.074219 25.804687l17.394531 29.492188c-23.546875 20.089844-69 52.050781-119.8125 52.050781-49.839844 0-93.9375-30.550781-119.398438-52.753906zm133.375-10.039063c0 16.523438-13.441406 29.96875-29.96875 29.96875-16.523438 0-29.96875-13.445312-29.96875-29.96875 0-16.527343 13.445312-29.96875 29.96875-29.96875 16.527344 0 29.96875 13.441407 29.96875 29.96875zm-233.5 179.816407 68.675781-116.449219c29.535157 24.820312 78.320313 56.511719 134.855469 56.511719 49.601562 0 97.167969-24.382813 135.25-55.839844l68.28125 115.777344zm0 0"/></svg>