<svg xmlns="http://www.w3.org/2000/svg" width="104" height="182" viewBox="0 0 104 182">
  <defs>
    <style>
      .cls-1 {
        fill-rule: evenodd;
      }
    </style>
  </defs>
  <path id="COMiKEY_copy_2" data-name="COMiKEY copy 2" class="cls-1" d="M102.573,36.777L80.516,72.408,89,96.84q0.9,2.6.17,3.393t-4.751.792a39.71,39.71,0,0,1-8.427-.961q-4.411-.962-5.2-3.224L63.662,75.914l0.453-3.393L86.059,36.777Q88.32,32.7,95.73,32.7t7.409,2.489A3.112,3.112,0,0,1,102.573,36.777ZM57.7,26.834q-11.207,0-11.207-10.112a26.64,26.64,0,0,1,.178-2.89q1.776-13,14.586-13,11.207,0,11.207,10.113a27.273,27.273,0,0,1-.178,2.889Q70.506,26.835,57.7,26.834Zm-5.8,6.719a9.565,9.565,0,0,1,4.751-.849q8.144,0,7.692,4.3L61.287,70.711,55.621,112.98a56.181,56.181,0,0,1,9.607-.87q13.688,0,17.759,6.561,2.6,4.072,2.6,10.633a106.966,106.966,0,0,1-1.074,14.422,75.3,75.3,0,0,1-2.941,13.46,22.068,22.068,0,0,1-5.26,8.936,17.48,17.48,0,0,1-7.805,4.524,49.457,49.457,0,0,1-12.272,1.188,24.094,24.094,0,0,1-8.322-1.358l-0.879,6.561q-0.453,2.829-1.244,3.563t-3.676.735a45.074,45.074,0,0,1-5.26-.282,11.669,11.669,0,0,1-4.242-1.3q-1.866-1.019-1.64-2.488l0.991-7.237a56.733,56.733,0,0,1-11.038,1.128q-13.687,0-17.758-6.56-2.6-4.073-2.6-10.633A106.973,106.973,0,0,1,1.641,139.54a75.323,75.323,0,0,1,2.941-13.461,22.073,22.073,0,0,1,5.26-8.935,17.473,17.473,0,0,1,7.8-4.524,49.416,49.416,0,0,1,12.273-1.188,22.95,22.95,0,0,1,9.8,1.972L50.2,36.89A4.385,4.385,0,0,1,51.9,33.553ZM34.387,124.327a17.275,17.275,0,0,0-7.692-1.471q-4.751,0-6.561,3.846t-3,12.556a106.074,106.074,0,0,0-1.187,12.159,24.682,24.682,0,0,0,.339,4.921q1.129,3.732,5.769,3.732a54.73,54.73,0,0,0,10.519-.791l0.884-.182,4.552-33.232Zm17.381,34.612a17.275,17.275,0,0,0,7.692,1.471q4.751,0,6.56-3.846t3-12.556A105.993,105.993,0,0,0,70.2,131.849a24.686,24.686,0,0,0-.339-4.921q-1.13-3.734-5.769-3.733a57.768,57.768,0,0,0-9.937.685l-4.575,34.133Z"/>
</svg>
